<svg width="15" height="15" viewBox="0 0 15 15" fill="none" xmlns="http://www.w3.org/2000/svg">
<mask id="mask0_448_2829" style="mask-type:luminance" maskUnits="userSpaceOnUse" x="1" y="1" width="13" height="13">
<path fill-rule="evenodd" clip-rule="evenodd" d="M1.25 1.25H13.423V13.4231H1.25V1.25Z" fill="white"/>
</mask>
<g mask="url(#mask0_448_2829)">
<path fill-rule="evenodd" clip-rule="evenodd" d="M7.33663 2.1875C4.49726 2.1875 2.18726 4.49687 2.18726 7.33625C2.18726 10.1756 4.49726 12.4856 7.33663 12.4856C10.1754 12.4856 12.4854 10.1756 12.4854 7.33625C12.4854 4.49687 10.1754 2.1875 7.33663 2.1875M7.33663 13.4231C3.98038 13.4231 1.24976 10.6925 1.24976 7.33625C1.24976 3.98 3.98038 1.25 7.33663 1.25C10.6929 1.25 13.4229 3.98 13.4229 7.33625C13.4229 10.6925 10.6929 13.4231 7.33663 13.4231" fill="#0A1A31"/>
</g>
<mask id="mask1_448_2829" style="mask-type:luminance" maskUnits="userSpaceOnUse" x="10" y="11" width="4" height="4">
<path fill-rule="evenodd" clip-rule="evenodd" d="M10.7749 11.0668H13.9149V14.2011H10.7749V11.0668Z" fill="white"/>
</mask>
<g mask="url(#mask1_448_2829)">
<path fill-rule="evenodd" clip-rule="evenodd" d="M13.4463 14.2011C13.3269 14.2011 13.2069 14.1554 13.1151 14.0642L10.9126 11.8679C10.7294 11.6848 10.7288 11.3879 10.9119 11.2048C11.0944 11.0204 11.3913 11.0217 11.5751 11.2036L13.7776 13.4004C13.9607 13.5836 13.9613 13.8798 13.7782 14.0629C13.6869 14.1554 13.5663 14.2011 13.4463 14.2011" fill="#0A1A31"/>
</g>
</svg>
